<?xml version="1.0" standalone="no"?>
<!DOCTYPE svg PUBLIC "-//W3C//DTD SVG 20010904//EN"
 "http://www.w3.org/TR/2001/REC-SVG-20010904/DTD/svg10.dtd">
<svg version="1.0" xmlns="http://www.w3.org/2000/svg"
 width="1024.000000pt" height="1024.000000pt" viewBox="0 0 1024.000000 1024.000000"
 preserveAspectRatio="xMidYMid meet">

<g transform="translate(0.000000,1024.000000) scale(0.100000,-0.100000)"
fill="#000000" stroke="none">
<path d="M3703 7959 c-108 -18 -237 -83 -340 -171 -157 -133 -252 -303 -283
-506 -7 -45 -10 -701 -8 -1977 4 -2154 -4 -1948 83 -2130 105 -218 315 -379
561 -430 63 -13 270 -15 1516 -15 794 0 1497 5 1563 10 297 22 520 175 650
445 24 50 48 115 55 145 8 40 11 566 11 1910 l-1 1855 -187 183 c-223 217
-655 613 -720 660 l-45 32 -1402 -1 c-770 -1 -1424 -5 -1453 -10z m2758 -334
c4 -16 12 -59 18 -95 7 -43 28 -100 63 -170 43 -87 65 -118 127 -178 86 -84
149 -128 202 -142 21 -6 104 -15 184 -20 81 -5 148 -10 149 -12 0 -2 -1 -815
-4 -1808 l-5 -1805 -23 -58 c-64 -158 -210 -267 -382 -287 -125 -14 -2943 -13
-3012 1 -180 38 -329 171 -374 336 -18 65 -19 143 -19 1973 l0 1905 23 68 c28
80 89 175 140 217 49 41 146 88 202 99 25 5 642 8 1375 7 l1329 -1 7 -30z"/>
<path d="M5247 7542 c-9 -10 -20 -33 -23 -50 -9 -47 -72 -98 -219 -179 -224
-124 -435 -213 -615 -259 l-95 -24 -65 70 c-55 59 -71 70 -97 70 -26 0 -36 -6
-48 -31 -16 -31 -16 -31 35 -111 48 -76 50 -83 44 -127 -20 -136 -203 -547
-334 -749 l-59 -92 -65 0 c-73 0 -86 -11 -86 -73 0 -53 27 -71 95 -63 52 6 57
4 80 -21 37 -41 222 -415 288 -583 34 -86 64 -179 72 -228 l15 -84 -65 -76
c-36 -41 -65 -81 -65 -87 0 -19 40 -65 57 -65 18 0 54 29 140 111 l61 60 84
-30 c138 -49 203 -77 310 -134 57 -30 162 -86 235 -125 72 -38 164 -91 202
-116 76 -51 82 -62 97 -175 7 -56 31 -91 62 -91 44 1 62 39 62 133 l0 75 53
40 c73 57 225 143 412 233 144 70 199 93 382 160 87 32 97 29 183 -62 67 -69
81 -80 101 -74 27 8 59 41 59 60 0 12 -20 39 -85 121 -27 34 -30 44 -29 108 4
174 220 653 371 822 22 25 39 32 78 37 64 7 105 25 105 47 0 36 -22 78 -43 84
-12 3 -50 6 -84 6 -35 0 -63 4 -63 10 0 5 -28 56 -62 112 -143 240 -317 645
-318 740 0 28 10 50 40 90 22 29 40 62 40 74 0 20 -38 64 -55 64 -5 0 -38 -28
-72 -62 l-63 -62 -67 12 c-205 35 -511 170 -790 349 -64 40 -84 59 -88 80 -3
15 -11 39 -18 53 -16 32 -66 39 -90 12z m374 -417 c204 -107 335 -162 457
-192 104 -26 105 -27 82 -42 -14 -9 -49 -40 -79 -69 -52 -51 -56 -53 -95 -47
-114 19 -320 106 -536 227 l-95 53 0 116 -1 115 61 -42 c34 -24 126 -77 206
-119z m-428 -81 c-46 -34 -278 -155 -368 -191 -108 -44 -227 -83 -254 -83 -9
0 -51 33 -95 73 l-79 72 74 14 c41 7 115 29 164 48 186 73 552 264 565 296 3
7 6 -39 8 -102 2 -99 0 -115 -15 -127z m267 -194 c102 -69 265 -145 354 -165
104 -24 102 -23 64 -62 -18 -19 -47 -43 -64 -54 -29 -17 -35 -18 -87 -4 -57
15 -315 126 -352 152 -18 12 -20 25 -20 107 0 60 4 92 10 88 6 -3 48 -31 95
-62z m-245 -27 l-1 -86 -34 -24 c-44 -30 -140 -75 -250 -118 -138 -53 -135
-53 -209 7 l-64 53 34 8 c140 35 363 135 459 206 30 22 57 40 60 41 3 0 5 -39
5 -87z m-885 -52 c0 -5 18 -24 39 -42 22 -17 42 -38 45 -46 17 -44 -112 -370
-215 -543 l-45 -75 -105 0 -105 0 41 75 c23 41 67 120 97 176 87 158 155 312
179 404 12 47 23 91 25 99 3 9 10 6 24 -12 11 -14 20 -30 20 -36z m1974 -18
c34 -138 184 -456 286 -608 l51 -75 -95 0 c-109 0 -106 -2 -172 102 -102 158
-204 408 -204 498 0 36 7 50 48 95 26 30 52 54 58 54 6 1 19 -29 28 -66z
m-260 -203 c14 -87 117 -311 192 -416 24 -34 42 -63 39 -65 -2 -2 -48 -3 -102
-1 l-99 3 -47 102 c-56 121 -97 239 -97 279 0 20 14 46 47 84 26 30 50 54 54
54 3 0 9 -18 13 -40z m-1394 -103 c0 -44 -50 -200 -96 -296 l-44 -94 -46 7
c-26 3 -69 6 -97 6 -38 0 -47 3 -39 13 5 6 26 50 45 97 19 47 53 115 74 151
33 56 49 100 90 239 7 23 113 -92 113 -123z m565 -1 l0 -114 -37 -12 c-21 -6
-50 -21 -65 -34 l-27 -24 -88 79 c-49 43 -88 82 -87 86 1 5 40 22 88 39 47 16
113 44 146 62 33 17 62 31 65 32 3 0 5 -51 5 -114z m388 9 l68 -22 -62 -69
c-34 -38 -69 -77 -78 -86 -15 -16 -19 -16 -75 12 -32 17 -67 30 -77 30 -17 0
-19 10 -19 119 l0 120 88 -41 c48 -23 118 -51 155 -63z m-625 -274 l23 -12
-21 -33 c-11 -18 -20 -41 -20 -50 0 -14 -18 -16 -156 -16 l-155 0 19 28 c10
15 27 50 37 77 10 28 31 81 48 118 l30 68 86 -84 c47 -46 96 -89 109 -96z
m841 107 c13 -39 40 -104 62 -144 l38 -73 -132 -3 c-73 -2 -137 1 -144 5 -7 5
-20 29 -29 54 l-17 45 94 94 c52 51 96 94 100 94 3 0 15 -32 28 -72z m471
-353 c0 -3 -23 -40 -51 -81 -66 -99 -146 -277 -173 -386 -11 -48 -24 -87 -27
-85 -4 1 -30 33 -59 71 -48 65 -52 73 -46 110 12 78 68 221 115 293 l46 72 85
4 c47 1 91 4 98 5 6 1 12 0 12 -3z m332 -52 c-135 -202 -259 -465 -317 -677
-9 -32 -20 -55 -24 -50 -5 5 -32 36 -61 68 l-53 59 6 56 c13 139 138 423 229
524 52 56 54 57 123 66 39 5 85 9 103 10 l33 1 -39 -57z m-2449 -10 c93 -154
172 -343 207 -495 l22 -96 -47 -58 c-27 -33 -52 -60 -56 -62 -4 -2 -13 16 -19
40 -42 171 -167 457 -279 637 -28 45 -51 84 -51 87 0 2 42 4 94 4 l95 0 34
-57z m337 20 c27 -47 98 -222 116 -288 23 -83 19 -104 -32 -167 -25 -32 -49
-58 -52 -58 -4 0 -20 51 -36 113 -35 138 -73 232 -132 328 -75 121 -78 109 25
109 l89 0 22 -37z m442 -3 c5 -19 14 -45 20 -58 11 -21 4 -30 -87 -122 -54
-55 -101 -97 -103 -95 -3 2 -21 55 -42 117 -20 62 -47 132 -59 156 l-22 43
143 -3 142 -3 8 -35z m941 -42 c-20 -46 -46 -117 -58 -158 -12 -41 -25 -74
-29 -73 -4 1 -52 45 -107 97 l-101 96 20 42 c11 24 22 51 25 61 6 15 22 17
146 17 l139 0 -35 -82z m-704 -203 l31 -7 0 -124 c0 -68 -2 -124 -4 -124 -2 0
-35 17 -73 38 -60 34 -164 78 -230 97 -19 5 -10 16 75 99 l97 94 36 -33 c20
-18 51 -36 68 -40z m357 34 c10 -12 49 -48 85 -79 l66 -57 -56 -23 c-87 -36
-213 -100 -248 -127 l-33 -24 0 134 0 134 38 11 c20 7 51 20 67 31 39 26 58
26 81 0z m-690 -273 c65 -17 222 -96 297 -150 l59 -41 4 -100 c2 -55 1 -95 -3
-89 -22 30 -260 171 -345 204 -56 22 -190 81 -198 88 -8 6 104 101 120 102 8
0 38 -6 66 -14z m1008 -36 c48 -42 54 -51 39 -57 -157 -56 -312 -132 -451
-223 -51 -33 -94 -60 -96 -60 -6 0 -5 166 1 175 40 53 360 211 434 214 9 1 42
-22 73 -49z m252 -240 l62 -59 -83 -26 c-46 -14 -133 -47 -195 -75 -124 -54
-418 -214 -493 -267 l-48 -33 3 97 3 98 85 59 c147 101 503 263 584 265 11 1
47 -26 82 -59z m-1466 36 c50 -15 174 -75 262 -127 32 -19 95 -56 140 -82 46
-26 99 -61 118 -77 34 -28 35 -31 41 -117 3 -48 5 -90 3 -91 -1 -2 -35 19 -76
46 -67 45 -240 143 -380 214 -31 17 -119 56 -195 87 -135 57 -168 82 -125 95
10 4 32 20 48 36 24 24 37 29 74 30 25 0 65 -6 90 -14z"/>
<path d="M3837 4370 c-32 -38 -34 -73 -7 -118 l20 -33 481 3 481 3 24 28 c30
36 31 78 0 113 l-23 28 -475 4 -475 4 -26 -32z"/>
<path d="M5709 4371 c-35 -35 -39 -86 -10 -122 l19 -24 507 0 507 0 24 30 c33
41 31 80 -5 116 l-29 29 -492 0 -492 0 -29 -29z"/>
<path d="M3839 3939 c-35 -38 -37 -70 -6 -122 l22 -38 1434 0 c1068 1 1438 4
1448 13 21 17 43 64 43 92 0 14 -11 38 -24 53 l-24 28 -1432 3 -1432 2 -29
-31z"/>
<path d="M3885 3532 c-36 -4 -60 -25 -73 -62 -13 -35 15 -103 50 -121 18 -10
318 -11 1438 -6 l1415 7 33 35 c40 43 41 75 3 117 l-29 32 -1403 1 c-772 0
-1417 -2 -1434 -3z"/>
</g>
</svg>
